<svg id="Layer_1" data-name="Layer 1" xmlns="http://www.w3.org/2000/svg" viewBox="0 0 252.65 54.33"><defs><style>.cls-1{fill:#5bb000;}</style></defs><path d="M1.78,28c-.6,0-.9-.38-.9-1.12A7.45,7.45,0,0,1,1.29,25c.27-.9.51-1.61.71-2.11A7,7,0,0,1,3.38,20.4q1.14-1.08,8.85-2c2.24-.24,3.87-.37,4.89-.37s1.74,0,2.17.06a13.48,13.48,0,0,1,1.34.19,14.13,14.13,0,0,1,1.39.35,8.46,8.46,0,0,1,1.32.53,4.19,4.19,0,0,1,1.88,1.69,11.91,11.91,0,0,1,1.68,5.19c0,1.5-.87,3-2.63,4.4-.53.44-1.09.88-1.7,1.33-2.2,1.54-3.49,2.46-3.86,2.74a17.64,17.64,0,0,0,4.65,6.2c.28.25.49.43.66.56.7.54,1.54.45,2.5-.26a1.33,1.33,0,0,1,.81-.32.93.93,0,0,1,.72.4,1.35,1.35,0,0,1,.31.87,7.35,7.35,0,0,1-2.25,4.72C25,48,24,48.58,23.1,48.58c-.73,0-2.31-1.38-4.75-4.16A45.84,45.84,0,0,1,15,40.21a30,30,0,0,1-1.77-2.77,3.41,3.41,0,0,1-.49-1.58A2.72,2.72,0,0,1,13,34.69a4.49,4.49,0,0,1,.67-1,11.07,11.07,0,0,1,1.9-1.57,15.67,15.67,0,0,0,2-1.59A11.38,11.38,0,0,0,18.92,29a5.43,5.43,0,0,0,1.24-3.09,2.59,2.59,0,0,0-.42-1.51c-.52-.73-1-1.09-1.45-1.09a23,23,0,0,0-2.8.21l-1.73,4a70.88,70.88,0,0,0-4.5,14q-.48,2.43-3.64,2.43c-1.74,0-2.84-.53-3.33-1.58a1.86,1.86,0,0,1-.17-1A5.82,5.82,0,0,1,2.49,40c.21-.55.49-1.23.85-2.05l1.26-2.8,1.55-3.3,1.74-3.55L9.7,24.73a24.37,24.37,0,0,0-7.21,3A1.19,1.19,0,0,1,1.78,28Z" transform="translate(-0.88)"/><path d="M43.87,32.13c0,.66.43,1,1.3,1a4.62,4.62,0,0,0,2.52-1.21l1.13-.81a1.64,1.64,0,0,1,.92-.39.7.7,0,0,1,.61.31,1.47,1.47,0,0,1,.23.87,3.58,3.58,0,0,1-.28,1.28,10.08,10.08,0,0,1-.78,1.53,13.55,13.55,0,0,1-1.16,1.58,11.88,11.88,0,0,1-1.43,1.41,5.2,5.2,0,0,1-3.16,1.38,4.06,4.06,0,0,1-2.46-.68c-.19-.15-.38-.3-.56-.46a15.24,15.24,0,0,1-4.39,4.12A10.21,10.21,0,0,1,31,44a4.23,4.23,0,0,1-3.78-2.45,7.79,7.79,0,0,1,1.31-9.65A16.15,16.15,0,0,1,32,29a20.3,20.3,0,0,1,3-1.56,13.7,13.7,0,0,1,5.13-1.17,3.3,3.3,0,0,1,1.82.51,4.42,4.42,0,0,1,1.18,1,4.65,4.65,0,0,1,.91,3,3,3,0,0,1-.09.83A2.22,2.22,0,0,0,43.87,32.13ZM32.29,35.61l0,0v0A1.16,1.16,0,0,0,33.91,37a8.18,8.18,0,0,0,1.38-.62,12,12,0,0,0,2.91-2.28A3.38,3.38,0,0,1,38,32.86a4.7,4.7,0,0,1,.89-2.65,5.92,5.92,0,0,0-3.06,1.38,12.56,12.56,0,0,0-3.19,3.15A1.9,1.9,0,0,0,32.29,35.61Z" transform="translate(-0.88)"/><path d="M53.16,35.64a.76.76,0,0,0,.86.85q1.75,0,6-5.69L61.37,29c.93-1.19,1.55-1.79,1.86-1.79a1.52,1.52,0,0,1,.8.21,2.21,2.21,0,0,1,.63.51,2.12,2.12,0,0,1,.55,1.37,11.74,11.74,0,0,1-.12,1.6c-.08.59-.21,1.24-.38,2A51.42,51.42,0,0,1,63,38.29l-.58,1.62,2.4-2.83,4.93-5.49A2.05,2.05,0,0,1,71,30.86c.71,0,1.07.45,1.07,1.34a7.17,7.17,0,0,1-1.38,3.55A11.17,11.17,0,0,1,69.8,37L66.45,40.8,59.94,48c-.58.65-1,1.16-1.3,1.54-.35.74-.62,1.29-.82,1.65s-.38.75-.57,1.16a10.21,10.21,0,0,1-.55,1.06c-.39.64-.78,1-1.16,1a1.61,1.61,0,0,1-1.18-.65,3.44,3.44,0,0,1-1-2.13,7.45,7.45,0,0,1,.4-2.18c.26-.83.61-1.78,1-2.85l3-7.19a19.44,19.44,0,0,1-3.4,3.35,8.77,8.77,0,0,1-2.08,1.09,5.77,5.77,0,0,1-1.78.27,2.74,2.74,0,0,1-1.65-.51,4.09,4.09,0,0,1-1.18-1.35,9.2,9.2,0,0,1-.9-4.36,15.09,15.09,0,0,1,1.1-5.64,11.91,11.91,0,0,1,2.81-4.38A5.44,5.44,0,0,1,54.45,26a1.73,1.73,0,0,1,1.94,2,7.76,7.76,0,0,1-1.62,3.66A7.84,7.84,0,0,0,53.16,35.64Z" transform="translate(-0.88)"/><path d="M94.38,29.64c.3,0,.45.33.45,1A8.65,8.65,0,0,1,93,35.07l-.81,1.07q-3.66,4.77-6.91,6.35c-1.34.65-2.3.62-2.89-.09a7.07,7.07,0,0,1-1.14-2.91l-.34-1.6-3,2.41-1.74,1.29Q73,43.8,71.47,43.8a3.91,3.91,0,0,1-3.33-2,7.69,7.69,0,0,1-1.28-4.4A7,7,0,0,1,68.38,33a19.36,19.36,0,0,1,6.84-5.06,17.37,17.37,0,0,1,7.14-2.15c.61,0,.92.39.92,1.18A2.41,2.41,0,0,1,83,28.17,2.75,2.75,0,0,1,82,29l-1.78,1a19,19,0,0,0-5.81,4.47,2,2,0,0,0-.52,1.26q0,.6.75.6c.49,0,1.63-.68,3.43-2.06l1.17-.9q2.73-2.13,4.58-2.13A2.07,2.07,0,0,1,85.92,33c.09.32.17.64.24,1s.16.61.23.87c.17.6.32.9.46.9a1.16,1.16,0,0,0,.59-.26c.25-.18.53-.41.84-.68s.63-.58,1-.92L91,32.11C92.47,30.46,93.61,29.64,94.38,29.64Z" transform="translate(-0.88)"/><path d="M108.18,30.47c.61,0,.91.33.91,1A5.47,5.47,0,0,1,108,34.3a39.77,39.77,0,0,1-4.31,5.37q-4,4.2-7.21,4.2c-1.52,0-2.76-.86-3.74-2.57a14.73,14.73,0,0,1-1.51-7.22c0-4,1.49-8.35,4.46-13.14,1.89-3.06,3.67-5.13,5.34-6.23a2.54,2.54,0,0,1,1.19-.51,1.77,1.77,0,0,1,.77.17,2.28,2.28,0,0,1,.64.49,2.56,2.56,0,0,1,.7,1.82,8.51,8.51,0,0,1-.46,2.53,18.84,18.84,0,0,1-1.31,3.12,29.08,29.08,0,0,1-4.94,6.74,12.9,12.9,0,0,0-.81,4.82,4.93,4.93,0,0,0,.62,2.4c.43.75.89,1.12,1.4,1.12q1.05,0,4-2.82l2.52-2.52A4.22,4.22,0,0,1,108.18,30.47Z" transform="translate(-0.88)"/><path d="M192.38,17.7c.63,0,1,.28,1,.84A8.1,8.1,0,0,1,192,22a5.22,5.22,0,0,1-3,2.46,3.28,3.28,0,0,1-1.09.2,6.77,6.77,0,0,1-1-.09,29.35,29.35,0,0,0-3.65-.31c-1.16,2.65-2,4.68-2.55,6.07l2.19-.07a8.08,8.08,0,0,0,1.63-.09l1.42-.17.56-.07c.39,0,.63,0,.73.2a2.51,2.51,0,0,1,.26,1.16,7.33,7.33,0,0,1-.07,1.13,6.23,6.23,0,0,1-.19.9,3.38,3.38,0,0,1-.64,1.3,3.43,3.43,0,0,1-2.55.8c-.23,0-.44,0-.65,0L179,34.91a54,54,0,0,0-1.71,6.57q-.49,2.43-3.64,2.43c-1.74,0-2.85-.53-3.33-1.58a2,2,0,0,1-.19-1,4.59,4.59,0,0,1,.28-1.07c.15-.4.34-.9.59-1.49l2-4.47-.38,0a1.85,1.85,0,0,1-.47-.09,1.28,1.28,0,0,1-.62-.6,2,2,0,0,1-.24-.93,2.08,2.08,0,0,1,.42-1.41,1.54,1.54,0,0,1,.89-.56c.3,0,.64-.07,1-.09l1.19,0c1.46-2.94,2.51-5,3.16-6.23a12.38,12.38,0,0,0-6.1,2.16,7.22,7.22,0,0,0-1.17,1c-.3.33-.55.5-.76.5a1.09,1.09,0,0,1-.53-.12,1.52,1.52,0,0,1-.4-.32,1.51,1.51,0,0,1-.4-1,2.26,2.26,0,0,1,.23-1q2.7-5.43,6-6.65a7.59,7.59,0,0,1,2.58-.42q5.83,0,9.26-.18t3.75-.24l1.32-.26A2.68,2.68,0,0,1,192.38,17.7Z" transform="translate(-0.88)"/><path d="M205.24,32.13c0,.66.43,1,1.3,1a4.62,4.62,0,0,0,2.52-1.21l1.13-.81a1.64,1.64,0,0,1,.92-.39.7.7,0,0,1,.61.31,1.47,1.47,0,0,1,.23.87,3.81,3.81,0,0,1-.28,1.28,10.08,10.08,0,0,1-.78,1.53,13.55,13.55,0,0,1-1.16,1.58,11.88,11.88,0,0,1-1.43,1.41,5.2,5.2,0,0,1-3.16,1.38,4.11,4.11,0,0,1-2.47-.68l-.55-.46a15.24,15.24,0,0,1-4.39,4.12,10.21,10.21,0,0,1-5.34,2,4.23,4.23,0,0,1-3.78-2.45,7.79,7.79,0,0,1,1.31-9.65,16.12,16.12,0,0,1,3.44-3,20.86,20.86,0,0,1,3-1.56,13.7,13.7,0,0,1,5.13-1.17,3.3,3.3,0,0,1,1.82.51,4.42,4.42,0,0,1,1.18,1,4.65,4.65,0,0,1,.91,3,3,3,0,0,1-.09.83A2.22,2.22,0,0,0,205.24,32.13Zm-11.59,3.48v.07a1.16,1.16,0,0,0,1.64,1.3,8.55,8.55,0,0,0,1.38-.62,12,12,0,0,0,2.91-2.28,3.38,3.38,0,0,1-.22-1.22,4.7,4.7,0,0,1,.89-2.65,5.92,5.92,0,0,0-3.06,1.38A12.4,12.4,0,0,0,194,34.74,2,2,0,0,0,193.65,35.61Z" transform="translate(-0.88)"/><path d="M224.5,32.13c0,.66.43,1,1.3,1a4.62,4.62,0,0,0,2.52-1.21l1.13-.81a1.61,1.61,0,0,1,.91-.39A.72.72,0,0,1,231,31a1.47,1.47,0,0,1,.23.87,3.62,3.62,0,0,1-.29,1.28,9.13,9.13,0,0,1-.77,1.53A13.67,13.67,0,0,1,229,36.28a11.19,11.19,0,0,1-1.43,1.41,5.15,5.15,0,0,1-3.15,1.38,4.11,4.11,0,0,1-2.47-.68l-.55-.46A15.24,15.24,0,0,1,217,42.05a10.21,10.21,0,0,1-5.34,2,4.23,4.23,0,0,1-3.78-2.45,8.11,8.11,0,0,1-1.12-4,8.3,8.3,0,0,1,2.42-5.62,16.15,16.15,0,0,1,3.45-3,20.36,20.36,0,0,1,3-1.56,13.7,13.7,0,0,1,5.13-1.17,3.33,3.33,0,0,1,1.82.51,4.58,4.58,0,0,1,1.18,1,4.71,4.71,0,0,1,.91,3,3,3,0,0,1-.09.83A1.83,1.83,0,0,0,224.5,32.13Zm-11.59,3.48v.07a1.16,1.16,0,0,0,1.64,1.3,8.08,8.08,0,0,0,1.37-.62,12.06,12.06,0,0,0,2.92-2.28,3.39,3.39,0,0,1-.23-1.22,4.71,4.71,0,0,1,.9-2.65,5.92,5.92,0,0,0-3.06,1.38,12.4,12.4,0,0,0-3.19,3.15A2,2,0,0,0,212.91,35.61Z" transform="translate(-0.88)"/><path d="M252.89,29.86c.42,0,.63.29.63.85a8.68,8.68,0,0,1-1.36,3.79,25.56,25.56,0,0,1-3.9,4.75q-3.52,3.59-5.67,3.59a2.61,2.61,0,0,1-2.43-1.77,12.07,12.07,0,0,1-.81-3.13l-1.26,1.18q-5.21,4.68-7.76,4.68a3.91,3.91,0,0,1-3.43-2,8.13,8.13,0,0,1-1.13-4.36A6.34,6.34,0,0,1,227.24,33a23.89,23.89,0,0,1,7.46-5.39,8,8,0,0,1,2.3-.87,1.77,1.77,0,0,1,.88.22,4.33,4.33,0,0,1,.8.54,2.23,2.23,0,0,1,.94,1.6,1.16,1.16,0,0,1-.6,1,5.21,5.21,0,0,1-.62.35c-.29.15-.65.35-1.08.61A22.51,22.51,0,0,0,234,33.6a3.64,3.64,0,0,0-1.16,2c0,.51.27.77.82.77a6.69,6.69,0,0,0,2.72-1.57l1.21-1A18.2,18.2,0,0,0,239.63,32l.65-2.76A47.25,47.25,0,0,1,243,21.06c1.74-4.33,3.48-6.49,5.24-6.49a2.46,2.46,0,0,1,2.55,2.29,8.56,8.56,0,0,1-.29,2.12,14.57,14.57,0,0,1-.74,2.23,21.91,21.91,0,0,1-1.05,2.19l-2.42,4.16c-.41.68-.77,1.33-1.08,2a12,12,0,0,0-.82,3.94c0,1.57.44,2.36,1.32,2.36.5,0,1.4-.68,2.7-2L250,31.94A7.61,7.61,0,0,1,252.36,30,1.27,1.27,0,0,1,252.89,29.86Z" transform="translate(-0.88)"/><path class="cls-1" d="M157.18,37.15a7.06,7.06,0,0,1-3.76,6.2,6.69,6.69,0,0,1-3.34.82q-14.85,0-29.7,0a7,7,0,0,1-7-6.31,5.44,5.44,0,0,1,0-.7Z" transform="translate(-0.88)"/><path class="cls-1" d="M128.78,35.34h-2.52a12.22,12.22,0,0,1,.47-3.72,14.47,14.47,0,0,1,4.61-7.32,1.18,1.18,0,0,0,.33-.68c0-.75,0-1.5,0-2.25l-.13-.09c-.72.58-1.46,1.14-2.16,1.75a2.17,2.17,0,0,1-1.14.57A11.87,11.87,0,0,0,118.18,35c0,.11,0,.22,0,.4h-2.46c-.42-6.67,5.7-15.32,16-14.43v-.65c0-5.69,0-11.39,0-17.08a1.47,1.47,0,0,1,.74-1.49,1.19,1.19,0,0,1,1.67.58,1.59,1.59,0,0,0,1,1,1.08,1.08,0,0,1,.75,1.27,17.62,17.62,0,0,0,0,1.79l-1.51-.84c0,.63,0,1.19,0,1.75,0,.15.27.34.45.41a1.47,1.47,0,0,1,1.05,1.82,9.23,9.23,0,0,0,0,1.3l-1.46-.82V22.28c5.51-2.34,10.73-1.9,15.45,1.89a14.14,14.14,0,0,1,5.31,11.19c-.82,0-1.61,0-2.39,0-.08,0-.21-.33-.22-.52a11.43,11.43,0,0,0-3.73-8.12,11.26,11.26,0,0,0-12.05-2.52,11.51,11.51,0,0,0-7.78,9.63C128.84,34.29,128.83,34.79,128.78,35.34Z" transform="translate(-0.88)"/><path class="cls-1" d="M140.84,13.2v5.35l-2.53.19c0-.18,0-.34,0-.5,0-5.59,0-11.17,0-16.76A1.33,1.33,0,0,1,140,.1a1.22,1.22,0,0,1,.79,1.28,1.09,1.09,0,0,0,.74,1.22c.72.36,1.41.78,2.1,1.21A4.81,4.81,0,0,1,146,7.38a5.24,5.24,0,0,0,3.13,4.24q9,4.29,18,8.61a2.51,2.51,0,0,1,1.62,2.4,2.46,2.46,0,0,1-3.87,2c-1.76-1.18-3.51-2.38-5.26-3.57-3.8-2.6-7.61-5.18-11.41-7.79a5.26,5.26,0,0,0-5.19-.59A16.59,16.59,0,0,1,140.84,13.2Zm0-8.51c0,.6,0,1.08,0,1.55s.21.6.5.57a1.36,1.36,0,0,0,.86-.44.72.72,0,0,0-.23-1C141.64,5.12,141.28,4.94,140.84,4.69Z" transform="translate(-0.88)"/><path class="cls-1" d="M133.58,35.33H131a9.42,9.42,0,0,1,4.29-8,9.13,9.13,0,0,1,10.46-.16,9.38,9.38,0,0,1,4.54,8.16h-2.56a7.15,7.15,0,0,0-2.66-5.5,6.73,6.73,0,0,0-4.33-1.56,6.83,6.83,0,0,0-5,2A7.13,7.13,0,0,0,133.58,35.33Z" transform="translate(-0.88)"/><path class="cls-1" d="M145.77,35.36c-.78,0-1.53,0-2.28,0-.12,0-.28-.29-.31-.46a2.56,2.56,0,0,0-3.81-1.75,2.75,2.75,0,0,0-1.31,2.2h-2.48c-.3-2.46,2.12-5,4.81-5.14A5.14,5.14,0,0,1,145.77,35.36Z" transform="translate(-0.88)"/><path class="cls-1" d="M126.39,26.41c-.57,1.4-1.16,2.84-1.74,4.28,0,0,0,.07-.05.1A7.34,7.34,0,0,0,123,35.33h-2.52A9.47,9.47,0,0,1,126.39,26.41Z" transform="translate(-0.88)"/></svg>